<?xml version="1.0" encoding="UTF-8"?>
<svg version="1.1" xmlns="http://www.w3.org/2000/svg" width="500" height="500">
<path d="M0 0 C165 0 330 0 500 0 C500 165 500 330 500 500 C335 500 170 500 0 500 C0 335 0 170 0 0 Z " fill="#FEFEFE" transform="translate(0,0)"/>
<path d="M0 0 C4.21085839 0.50282463 7.67291837 2.08627661 11.48828125 3.87890625 C12.10460922 4.16690598 12.72093719 4.4549057 13.35594177 4.75163269 C15.34421721 5.68284832 17.32848815 6.62223894 19.3125 7.5625 C20.67275733 8.20299964 22.0331091 8.84329875 23.39355469 9.48339844 C30.53792841 12.85202584 37.67227932 16.24311346 44.75 19.75 C45.37946533 20.0601001 46.00893066 20.3702002 46.6574707 20.68969727 C49.14244634 21.94127515 51.01653553 23.01653553 53 25 C53.39648438 27.86613464 53.39648438 27.86613464 53.59375 31.53979492 C53.63077026 32.20502513 53.66779053 32.87025534 53.70593262 33.55564404 C54.08254165 40.71367675 54.27802696 47.87862795 54.44555664 55.0441227 C54.50151259 57.42771421 54.5617581 59.81116581 54.62304688 62.19462585 C54.79619617 68.9576524 54.96161444 75.72086213 55.125 82.48413086 C55.22595545 86.65120547 55.33145564 90.81814547 55.43969727 94.98503685 C55.47978122 96.56588458 55.51804079 98.14677966 55.55444336 99.72771645 C55.60497442 101.92187904 55.66121708 104.11582596 55.71875 106.30981445 C55.74904297 107.55696732 55.77933594 108.80412018 55.81054688 110.08906555 C55.80677662 112.93703664 55.80677662 112.93703664 57 115 C57.14879681 117.30921203 57.22134584 119.6236764 57.25 121.9375 C57.27578125 123.18402344 57.3015625 124.43054688 57.328125 125.71484375 C57 129 57 129 55.62109375 130.9609375 C54 132 54 132 51.8125 131.6875 C50.9153125 131.3471875 50.9153125 131.3471875 50 131 C50.66 130.01 51.32 129.02 52 128 C52.07905064 125.66800612 52.08798769 123.33167378 52 121 C51.54625 121.495 51.0925 121.99 50.625 122.5 C49 124 49 124 47 124 C47 124.66 47 125.32 47 126 C44.69921875 127.69140625 44.69921875 127.69140625 41.6875 129.5625 C40.70136719 130.18253906 39.71523438 130.80257812 38.69921875 131.44140625 C32.02018871 135.29803865 24.21136662 134.79103786 16.875 133 C11.2154504 131.12255326 6.9058457 127.44360707 3 123 C3 122.34 3 121.68 3 121 C2.34 121 1.68 121 1 121 C1.11470137 122.75070517 1.24219028 124.50057536 1.375 126.25 C1.44460938 127.22453125 1.51421875 128.1990625 1.5859375 129.203125 C1.98910348 131.92639708 2.52789508 133.69123113 4 136 C4.66 136.33 5.32 136.66 6 137 C6 137.66 6 138.32 6 139 C4.52093108 139.02689216 3.04172517 139.04634621 1.5625 139.0625 C0.73878906 139.07410156 -0.08492188 139.08570313 -0.93359375 139.09765625 C-3 139 -3 139 -4 138 C-4.10164892 135.37266323 -4.13964171 132.77233313 -4.1328125 130.14453125 C-4.13376923 129.33247726 -4.13472595 128.52042328 -4.13571167 127.6837616 C-4.1363951 125.94599328 -4.13452957 124.20822246 -4.13037109 122.47045898 C-4.12516925 119.89625725 -4.13023275 117.32224202 -4.13671875 114.74804688 C-4.14026775 106.07433911 -3.96974526 97.43586087 -3.5234375 88.7734375 C-3.05092976 79.52421617 -2.84366367 70.27898031 -2.71875 61.01953125 C-2.70919155 60.32148943 -2.6996331 59.62344761 -2.689785 58.90425301 C-2.61188523 53.1377378 -2.54200396 47.37113081 -2.47393799 41.60449219 C-2.42254481 37.26254712 -2.36769549 32.92067344 -2.30812073 28.57883263 C-2.28208264 26.58334266 -2.26101535 24.58778975 -2.2401123 22.59223938 C-1.95957164 1.95957164 -1.95957164 1.95957164 0 0 Z " fill="#F5F6F8" transform="translate(281,109)"/>
<path d="M0 0 C35.64 0 71.28 0 108 0 C106.49756887 4.5072934 105.18644101 7.72228391 102.8671875 11.7265625 C102.23369385 12.82718018 101.6002002 13.92779785 100.94750977 15.06176758 C100.25675913 16.24956171 99.56592026 17.43730453 98.875 18.625 C98.15951984 19.86385605 97.44460428 21.10303833 96.73022461 22.3425293 C95.24098798 24.9256734 93.74931044 27.50738689 92.25634766 30.08837891 C90.05550244 33.89800347 87.87431821 37.71859874 85.69921875 41.54296875 C73.9248904 62.24326279 73.9248904 62.24326279 68.75 71 C68.10546875 72.093125 67.4609375 73.18625 66.796875 74.3125 C64.27940011 78.0777668 62.34529623 80.55156792 58 82 C55.984375 82.30859375 55.984375 82.30859375 53.75 82.4375 C53.02296875 82.49808594 52.2959375 82.55867188 51.546875 82.62109375 C46.4458555 81.37713347 43.22035218 77.81677171 40.35400391 73.54956055 C38.64157615 70.60962423 37.02811145 67.63256729 35.4375 64.625 C34.20907695 62.36607383 32.97855403 60.10828851 31.74609375 57.8515625 C31.12460449 56.70719727 30.50311523 55.56283203 29.86279297 54.38378906 C27.00754929 49.19719963 24.00731724 44.09941933 21 39 C15.96522634 30.41762534 11.00782675 21.79450872 6.125 13.125 C5.51140625 12.0421875 4.8978125 10.959375 4.265625 9.84375 C3.70617187 8.84601563 3.14671875 7.84828125 2.5703125 6.8203125 C2.07289551 5.93617676 1.57547852 5.05204102 1.06298828 4.14111328 C0 2 0 2 0 0 Z " fill="#FCFCFD" transform="translate(196,351)"/>
<path d="M0 0 C1.71890076 1.71890076 1.2202233 4.01725539 1.29711914 6.3684082 C1.33707504 7.53267334 1.37703094 8.69693848 1.41819763 9.89648438 C1.45679398 11.18490234 1.49539032 12.47332031 1.53515625 13.80078125 C1.5784825 15.16170811 1.62198949 16.52262922 1.66566467 17.88354492 C1.78228271 21.58711552 1.89060871 25.29088515 1.99619293 28.99478531 C2.06226755 31.30437497 2.13023002 33.61390348 2.19842529 35.9234314 C3.19191829 69.94919808 3.21635686 103.96304218 3 138 C0.69 138 -1.62 138 -4 138 C-4 135 -4 135 -3 133 C-2.92934383 130.95944995 -2.91578024 128.91665743 -2.9375 126.875 C-2.94652344 125.77929688 -2.95554688 124.68359375 -2.96484375 123.5546875 C-2.97644531 122.71164063 -2.98804688 121.86859375 -3 121 C-3.61875 121.68835938 -3.61875 121.68835938 -4.25 122.390625 C-9.53326881 128.00409811 -15.72546964 132.59901231 -23.671875 133.203125 C-33.47328009 133.35238498 -39.28201657 130.82786504 -47 125 C-46.505 124.01 -46.505 124.01 -46 123 C-45.07767578 123.63228516 -45.07767578 123.63228516 -44.13671875 124.27734375 C-43.32847656 124.82519531 -42.52023438 125.37304688 -41.6875 125.9375 C-40.88699219 126.48277344 -40.08648437 127.02804688 -39.26171875 127.58984375 C-34.63212569 130.47634305 -30.28179405 130.35393465 -25 130 C-15.99881317 127.88207369 -9.80127509 121.7143351 -4.8046875 114.203125 C-3.64042247 111.01552559 -3.81244579 108.12792759 -3.875 104.75 C-3.89304688 103.48671875 -3.91109375 102.2234375 -3.9296875 100.921875 C-3.95289063 99.95765625 -3.97609375 98.9934375 -4 98 C-4.66 98.66 -5.32 99.32 -6 100 C-6.268125 99.175 -6.53625 98.35 -6.8125 97.5 C-7.4003125 95.7675 -7.4003125 95.7675 -8 94 C-8.21785156 93.32710938 -8.43570313 92.65421875 -8.66015625 91.9609375 C-10.10933003 87.73220091 -11.45776765 84.93150263 -15 82 C-14.6390625 82.53625 -14.278125 83.0725 -13.90625 83.625 C-9.13304982 91.68640475 -9.49456975 98.94718268 -10 108 C-10.99 108.495 -10.99 108.495 -12 109 C-12 107.35 -12 105.7 -12 104 C-12.32871094 104.99580078 -12.32871094 104.99580078 -12.6640625 106.01171875 C-15.09735583 112.78735261 -17.39550635 116.69775318 -24 120 C-26.88370333 120.07194869 -29.74239664 120.09291708 -32.625 120.0625 C-33.42679688 120.05798828 -34.22859375 120.05347656 -35.0546875 120.04882812 C-37.03649006 120.03703168 -39.01825433 120.01909605 -41 120 C-41 119.34 -41 118.68 -41 118 C-42.65 117.67 -44.3 117.34 -46 117 C-50.14396007 106.98542984 -50.57067905 96.1636539 -46.9765625 85.8515625 C-46 84 -46 84 -43.6875 82.625 C-42.3571875 82.315625 -42.3571875 82.315625 -41 82 C-40.154375 81.29875 -39.30875 80.5975 -38.4375 79.875 C-32.41185817 76.58828628 -25.75509958 77.26530678 -19.25 79 C-18.5075 79.33 -17.765 79.66 -17 80 C-21.39444126 77.53482564 -25.04240333 76.68045445 -30 76 C-30.495 75.01 -30.495 75.01 -31 74 C-30.01 73.505 -30.01 73.505 -29 73 C-31.31 72.01 -33.62 71.02 -36 70 C-35.67 69.34 -35.34 68.68 -35 68 C-32.92578125 67.5078125 -32.92578125 67.5078125 -30.3125 67.125 C-24.08324511 65.96090244 -20.47731135 64.09285775 -16.75 58.8125 C-14.63549032 54.75968978 -13.77141537 50.47623916 -13 46 C-13.99 45.67 -14.98 45.34 -16 45 C-16.70381157 43.01276732 -17.3711811 41.01222047 -18 39 C-18.99 38.505 -18.99 38.505 -20 38 C-19.505 38.7425 -19.505 38.7425 -19 39.5 C-17.34565704 43.63585741 -17.17545027 47.72311835 -18.6875 51.8984375 C-21.45463323 57.17905008 -25.30656611 60.55474279 -30.5625 63.375 C-33.53193474 64.13639352 -35.1140735 64.03597362 -38 63 C-40.3125 61.5625 -40.3125 61.5625 -42 59 C-42.96675268 53.39478749 -42.53754308 48.30440604 -39.32421875 43.53515625 C-35.71574493 39.3518813 -32.09105748 36.9018092 -26.5625 36.1875 C-25.386875 36.125625 -24.21125 36.06375 -23 36 C-24.32 35.67 -25.64 35.34 -27 35 C-27 34.34 -27 33.68 -27 33 C-28.7015625 32.814375 -28.7015625 32.814375 -30.4375 32.625 C-31.613125 32.41875 -32.78875 32.2125 -34 32 C-34.33 31.34 -34.66 30.68 -35 30 C-32.03 29.34 -29.06 28.68 -26 28 C-24.63299606 22.20048909 -24.63299606 22.20048909 -26.9375 17 C-27.9584375 16.01 -27.9584375 16.01 -29 15 C-26.6875 14.3125 -26.6875 14.3125 -24 14 C-22.1875 15 -22.1875 15 -21 17 C-20.48937691 20.38287796 -20.25380092 22.81333619 -22.125 25.7890625 C-23.3468459 27.25388911 -24.66793478 28.63463315 -26 30 C-25.14728516 30.07734375 -25.14728516 30.07734375 -24.27734375 30.15625 C-18.42300539 31.01631974 -14.92424648 32.82325802 -11.26171875 37.52734375 C-8.83465164 42.28379415 -9.03518788 46.8430113 -10 52 C-12.676159 59.36505943 -17.5653567 65.09186484 -24.375 68.875 C-25.24125 69.24625 -26.1075 69.6175 -27 70 C-26.33355469 70.07476562 -25.66710937 70.14953125 -24.98046875 70.2265625 C-17.32274468 71.31899307 -11.56022346 73.96489157 -5 78 C-5.14063135 75.70800823 -5.28765943 73.41640814 -5.4375 71.125 C-5.51871094 69.84882813 -5.59992188 68.57265625 -5.68359375 67.2578125 C-5.79206027 64.11699848 -5.79206027 64.11699848 -7 62 C-7.19884378 60.16046634 -7.34512264 58.31512206 -7.46484375 56.46875 C-7.54283203 55.34726563 -7.62082031 54.22578125 -7.70117188 53.0703125 C-7.85664747 50.72147457 -8.01034294 48.37251801 -8.16210938 46.0234375 C-8.84992783 36.20385039 -10.36449941 27.16363541 -13.625 17.875 C-13.85445312 17.2046875 -14.08390625 16.534375 -14.3203125 15.84375 C-14.87455257 14.22721648 -15.43642015 12.6133011 -16 11 C-22.05831915 10.53214551 -25.90867483 11.91220325 -31.25 14.6875 C-32.30960938 15.19700195 -32.30960938 15.19700195 -33.390625 15.71679688 C-37.58145216 17.83999056 -40.05084992 19.5387684 -42 24 C-42.68764876 25.98897782 -42.68764876 25.98897782 -43.0625 27.9375 C-43.57441683 30.311819 -44.17426233 32.48916947 -44.9921875 34.78515625 C-48.38449324 45.60634861 -48.27873281 57.89918943 -48.57055664 69.16015625 C-48.80021131 76.25785964 -49.56982902 83.13863815 -52.04956055 89.83374023 C-53.70758814 95.35723364 -53.33292991 101.07357292 -53.31567383 106.79492188 C-53.31250865 108.99399163 -53.33602795 111.1917206 -53.36132812 113.390625 C-53.36360111 114.80208165 -53.36430462 116.21354189 -53.36328125 117.625 C-53.36626221 118.89601563 -53.36924316 120.16703125 -53.37231445 121.4765625 C-52.97120967 125.27246031 -51.90695741 127.72246619 -50 131 C-52.9375 130.625 -52.9375 130.625 -56 130 C-57.37252731 127.25494537 -57.13229255 124.99672588 -57.125 121.9375 C-57.12757813 120.85339844 -57.13015625 119.76929688 -57.1328125 118.65234375 C-57 116 -57 116 -56 115 C-55.88221489 113.41571438 -55.83268085 111.82629677 -55.81054688 110.23779297 C-55.79378403 109.21577286 -55.77702118 108.19375275 -55.75975037 107.14076233 C-55.73945518 105.45846779 -55.73945518 105.45846779 -55.71875 103.7421875 C-55.70074844 102.58307358 -55.68274689 101.42395966 -55.66419983 100.22972107 C-55.62574041 97.73843289 -55.58932363 95.24711252 -55.55471802 92.75576782 C-55.4640859 86.3278634 -55.35416531 79.90028709 -55.24609375 73.47265625 C-55.22522202 72.21202866 -55.20435028 70.95140106 -55.18284607 69.65257263 C-55.01946694 59.87117344 -54.83613992 50.09146248 -54.5625 40.3125 C-54.53542969 39.09481934 -54.50835937 37.87713867 -54.48046875 36.62255859 C-54.44695312 35.52637207 -54.4134375 34.43018555 -54.37890625 33.30078125 C-54.3538501 32.38466064 -54.32879395 31.46854004 -54.30297852 30.5246582 C-53.88232107 27.01940544 -53.18862326 24.10380692 -50.54248047 21.64648438 C-43.95991027 17.7972787 -37.0633691 14.64916253 -30.125 11.5 C-27.68895344 10.38790579 -25.25456405 9.27227687 -22.8203125 8.15625 C-21.66104248 7.62596191 -20.50177246 7.09567383 -19.30737305 6.54931641 C-15.49780232 4.76474891 -11.75836484 2.86640745 -8.03881836 0.90185547 C-5.26682501 -0.32431426 -2.97767054 -0.45810316 0 0 Z " fill="#122851" transform="translate(219,110)"/>
<path d="M0 0 C0.79198288 0.00424484 1.58396576 0.00848969 2.39994812 0.01286316 C4.91672502 0.02958712 7.43268599 0.0672265 9.94921875 0.10546875 C11.66079568 0.12052376 13.37238524 0.13421074 15.08398438 0.14648438 C19.26854108 0.1794699 23.45249182 0.23120777 27.63671875 0.29296875 C27.63671875 2.27296875 27.63671875 4.25296875 27.63671875 6.29296875 C26.08561401 6.3069873 26.08561401 6.3069873 24.50317383 6.32128906 C20.65427099 6.36126296 16.80616129 6.42704124 12.95776367 6.50048828 C11.29445612 6.52865524 9.63101579 6.54989108 7.9675293 6.56396484 C5.5714135 6.58545467 3.17688691 6.63213163 0.78125 6.68359375 C0.04147415 6.68482239 -0.6983017 6.68605103 -1.460495 6.68731689 C-6.37158251 6.82559075 -8.89239303 7.82494194 -12.36328125 11.29296875 C-14.55903979 14.22064681 -14.90326071 17.35210303 -14.80664062 20.98535156 C-14.26526074 23.80315038 -13.19160089 25.7854344 -11.76953125 28.27734375 C-11.22361328 29.24615479 -10.67769531 30.21496582 -10.11523438 31.21313477 C-9.53708984 32.22947998 -8.95894531 33.2458252 -8.36328125 34.29296875 C-7.23583952 36.33719689 -6.11088752 38.38279993 -4.98828125 40.4296875 C1.82721525 52.76186595 8.73155436 65.02647583 15.89257812 77.1628418 C19.61358403 83.47926052 23.12146487 89.84833663 26.63671875 96.29296875 C97.25671875 96.29296875 167.87671875 96.29296875 240.63671875 96.29296875 C245.58671875 87.38296875 250.53671875 78.47296875 255.63671875 69.29296875 C259.73952458 62.21916559 263.84476451 55.14991855 267.98779297 48.10009766 C270.65125665 43.56582087 273.30387985 39.02533956 275.94921875 34.48046875 C276.64289551 33.29710937 276.64289551 33.29710937 277.35058594 32.08984375 C277.77114258 31.36667969 278.19169922 30.64351562 278.625 29.8984375 C278.99149658 29.27090576 279.35799316 28.64337402 279.7355957 27.99682617 C281.89467974 23.91439662 282.26030347 19.8118224 281.63671875 15.29296875 C279.54804898 11.26481991 277.90016329 8.85741357 273.63671875 7.29296875 C270.99669816 7.05752305 268.45130415 6.92112454 265.80859375 6.87890625 C265.05958801 6.8595401 264.31058228 6.84017395 263.53887939 6.82022095 C261.15494039 6.76061159 258.77095261 6.71411521 256.38671875 6.66796875 C254.76690644 6.62977174 253.14711407 6.590719 251.52734375 6.55078125 C247.56396469 6.45492562 243.60049056 6.37082629 239.63671875 6.29296875 C239.63671875 4.31296875 239.63671875 2.33296875 239.63671875 0.29296875 C244.51135966 0.21853218 249.38566603 0.16423208 254.26074219 0.12817383 C255.91737638 0.1131341 257.57397106 0.09269698 259.23046875 0.06665039 C261.61858905 0.0300536 264.00618063 0.01319436 266.39453125 0 C267.49645309 -0.02322578 267.49645309 -0.02322578 268.62063599 -0.04692078 C274.41263979 -0.04879494 278.43464328 1.28094107 282.71875 5.1953125 C283.28980469 5.86691406 283.86085938 6.53851563 284.44921875 7.23046875 C285.03316406 7.89949219 285.61710937 8.56851563 286.21875 9.2578125 C289.45076975 13.89660669 289.33588308 19.85437113 288.63671875 25.29296875 C287.32142627 28.91180048 285.47409097 32.1133864 283.51171875 35.41796875 C282.97474365 36.36099854 282.43776855 37.30402832 281.88452148 38.27563477 C280.15738685 41.29482811 278.39966172 44.29456615 276.63671875 47.29296875 C275.48345697 49.27811279 274.33110977 51.26378844 273.1796875 53.25 C270.8599447 57.2422141 268.52711673 61.22643785 266.1875 65.20703125 C261.94531822 72.44611299 257.82721318 79.75411911 253.72290039 87.07202148 C253.2149292 87.97637939 252.70695801 88.8807373 252.18359375 89.8125 C251.73854492 90.60760986 251.29349609 91.40271973 250.83496094 92.22192383 C249.83415497 93.95171946 248.74525979 95.63015719 247.63671875 97.29296875 C268.42671875 97.29296875 289.21671875 97.29296875 310.63671875 97.29296875 C310.63671875 98.94296875 310.63671875 100.59296875 310.63671875 102.29296875 C193.81671875 102.29296875 76.99671875 102.29296875 -43.36328125 102.29296875 C-43.36328125 100.64296875 -43.36328125 98.99296875 -43.36328125 97.29296875 C-12.67328125 96.79796875 -12.67328125 96.79796875 18.63671875 96.29296875 C10.18458832 81.07913397 1.71815057 65.99419869 -7.04296875 50.9765625 C-7.59307617 50.03280762 -8.14318359 49.08905273 -8.70996094 48.11669922 C-9.81360759 46.23176461 -10.92366294 44.35056797 -12.04003906 42.47314453 C-13.62647608 39.79939016 -15.18485476 37.11099909 -16.73828125 34.41796875 C-17.20911133 33.6401001 -17.67994141 32.86223145 -18.16503906 32.06079102 C-21.35867301 26.44035956 -22.16349229 21.72481402 -21.36328125 15.29296875 C-19.42948577 9.08446746 -16.34423869 5.55137283 -11.22192383 1.6706543 C-7.46197329 -0.14140488 -4.08028704 -0.08294966 0 0 Z " fill="#1A2F57" transform="translate(116.36328125,162.70703125)"/>
<path d="M0 0 C0 1.32 0 2.64 0 4 C-0.58346128 3.98948325 -1.16692257 3.9789665 -1.7680645 3.96813107 C-15.99994451 3.71750525 -30.23025661 3.5618364 -44.46429253 3.51034451 C-51.34836628 3.48317853 -58.22941737 3.42452094 -65.11230469 3.2902832 C-71.75889909 3.16074412 -78.40219937 3.12087067 -85.05029678 3.13490486 C-87.58220706 3.12574335 -90.11419473 3.08686503 -92.6451683 3.01739311 C-105.51266052 2.12636853 -105.51266052 2.12636853 -117.015522 6.64925575 C-120.34368978 10.6474023 -122.36777096 15.04100962 -124.16779518 19.88794231 C-125.42459195 23.0775745 -127.14061499 25.86971995 -128.9140625 28.80078125 C-130.15204681 30.97078104 -131.38901045 33.14136341 -132.625 35.3125 C-133.30111575 36.49723947 -133.97738948 37.68188879 -134.65380859 38.86645508 C-137.87104918 44.50220326 -141.08183602 50.14155925 -144.28311157 55.78639221 C-145.71716136 58.3140257 -147.15369634 60.84024224 -148.59051514 63.36630249 C-149.26954985 64.5617345 -149.94736573 65.75785983 -150.62384033 66.95474243 C-163.24869467 89.29093175 -163.24869467 89.29093175 -171 92 C-176.77234983 92.94131311 -182.16150231 92.92892497 -187.375 90.0625 C-194.89307416 84.29385589 -199.02580416 74.57181971 -203.5 66.4375 C-208.25920929 57.85885857 -213.09635949 49.33554822 -218.0625 40.875 C-222.88089717 32.65181128 -227.6615074 24.40884796 -232.375 16.125 C-232.940979 15.13741699 -233.50695801 14.14983398 -234.09008789 13.13232422 C-234.60434326 12.22498535 -235.11859863 11.31764648 -235.6484375 10.3828125 C-236.10395996 9.58246582 -236.55948242 8.78211914 -237.02880859 7.95751953 C-238 6 -238 6 -238 4 C-276.28 4 -314.56 4 -354 4 C-354 2.68 -354 1.36 -354 0 C-259.91056942 -1.04182764 -165.82349 -1.48932778 0 0 Z M-231 4 C-229.21301917 9.36270819 -229.21301917 9.36270819 -226.7421875 14.1953125 C-226.28980713 14.97898193 -225.83742676 15.76265137 -225.37133789 16.57006836 C-224.87754639 17.4131958 -224.38375488 18.25632324 -223.875 19.125 C-222.78740263 21.00369917 -221.70018312 22.88261712 -220.61328125 24.76171875 C-220.0301416 25.76638184 -219.44700195 26.77104492 -218.84619141 27.80615234 C-216.58094965 31.72494271 -214.34148913 35.65809795 -212.10427856 39.59294128 C-209.4031181 44.3427549 -206.68988329 49.0855297 -203.96896362 53.8240509 C-202.34602511 56.65062148 -200.72728538 59.47942368 -199.11572266 62.3125 C-197.38004973 65.36078434 -195.62961243 68.4000886 -193.875 71.4375 C-193.36718994 72.33654053 -192.85937988 73.23558105 -192.33618164 74.16186523 C-189.43740416 79.13801158 -186.83588049 82.79550088 -182 86 C-177.84896758 87.03605407 -174.09535224 86.46248206 -170.1875 84.8125 C-166.01551747 81.35571448 -163.31613191 77.04912506 -160.671875 72.37109375 C-159.73130249 70.7154541 -159.73130249 70.7154541 -158.77172852 69.02636719 C-158.09776557 67.83010823 -157.42385749 66.63381836 -156.75 65.4375 C-156.04464413 64.19277609 -155.33882547 62.94831433 -154.63256836 61.70410156 C-153.1613408 59.11149828 -151.69212359 56.51777045 -150.22412109 53.92333984 C-147.02976074 48.28266665 -143.80518915 42.65930667 -140.58361816 37.03414917 C-138.29789193 33.04041298 -136.01875666 29.04291292 -133.73876953 25.04589844 C-132.63707847 23.11600547 -131.53405264 21.18687334 -130.42919922 19.25878906 C-129.11560088 16.96636974 -127.80695455 14.67121119 -126.5 12.375 C-126.13205322 11.73594727 -125.76410645 11.09689453 -125.38500977 10.43847656 C-123.56192526 7.41042224 -123.56192526 7.41042224 -123 4 C-158.64 4 -194.28 4 -231 4 Z " fill="#0E254F" transform="translate(427,347)"/>
<path d="M0 0 C4.21085839 0.50282463 7.67291837 2.08627661 11.48828125 3.87890625 C12.10460922 4.16690598 12.72093719 4.4549057 13.35594177 4.75163269 C15.34421721 5.68284832 17.32848815 6.62223894 19.3125 7.5625 C20.67275733 8.20299964 22.0331091 8.84329875 23.39355469 9.48339844 C30.53792841 12.85202584 37.67227932 16.24311346 44.75 19.75 C45.37946533 20.0601001 46.00893066 20.3702002 46.6574707 20.68969727 C49.14244634 21.94127515 51.01653553 23.01653553 53 25 C53.39648438 27.86613464 53.39648438 27.86613464 53.59375 31.53979492 C53.63077026 32.20502513 53.66779053 32.87025534 53.70593262 33.55564404 C54.08254165 40.71367675 54.27802696 47.87862795 54.44555664 55.0441227 C54.50151259 57.42771421 54.5617581 59.81116581 54.62304688 62.19462585 C54.79619617 68.9576524 54.96161444 75.72086213 55.125 82.48413086 C55.22595545 86.65120547 55.33145564 90.81814547 55.43969727 94.98503685 C55.47978122 96.56588458 55.51804079 98.14677966 55.55444336 99.72771645 C55.60497442 101.92187904 55.66121708 104.11582596 55.71875 106.30981445 C55.74904297 107.55696732 55.77933594 108.80412018 55.81054688 110.08906555 C55.80677662 112.93703664 55.80677662 112.93703664 57 115 C57.14879681 117.30921203 57.22134584 119.6236764 57.25 121.9375 C57.27578125 123.18402344 57.3015625 124.43054688 57.328125 125.71484375 C57 129 57 129 55.62109375 130.9609375 C54 132 54 132 51.8125 131.6875 C50.9153125 131.3471875 50.9153125 131.3471875 50 131 C50.66 130.01 51.32 129.02 52 128 C52.1959052 125.30057419 52.28007374 122.70695845 52.265625 120.0078125 C52.26753845 119.22485809 52.2694519 118.44190369 52.27142334 117.63522339 C52.27278378 115.97930581 52.26909719 114.32337753 52.26074219 112.66748047 C52.2500691 110.14135545 52.26062715 107.61594622 52.2734375 105.08984375 C52.27211532 103.4791651 52.26955171 101.8684869 52.265625 100.2578125 C52.26967346 99.50557404 52.27372192 98.75333557 52.27789307 97.978302 C52.24113295 93.83433303 51.71544847 90.75696373 50 87 C49.58568401 84.09115651 49.25590846 81.23496882 49 78.3125 C48.91806396 77.45615967 48.83612793 76.59981934 48.75170898 75.7175293 C48.27169152 70.55562235 47.88150417 65.39126941 47.53515625 60.21875 C47.45587891 59.07237061 47.37660156 57.92599121 47.29492188 56.74487305 C47.14324101 54.50487163 47.0021259 52.26412249 46.87304688 50.02270508 C46.48899261 44.32311073 45.75928836 39.30958701 43.72265625 33.95703125 C42.95826577 31.88697919 42.43631685 29.83594738 41.9375 27.6875 C40.61440306 22.05490921 40.61440306 22.05490921 36.42578125 18.40234375 C35.39839844 17.91894531 34.37101562 17.43554688 33.3125 16.9375 C32.23613281 16.42960937 31.15976562 15.92171875 30.05078125 15.3984375 C29.04402344 14.93695313 28.03726563 14.47546875 27 14 C26.27167969 13.64164063 25.54335938 13.28328125 24.79296875 12.9140625 C22.50874533 11.82918079 20.5598065 11.00219532 18.0078125 10.9921875 C14.72652366 12.63921575 14.033413 15.78001175 12.875 19.0625 C12.61565674 19.77986328 12.35631348 20.49722656 12.08911133 21.23632812 C9.53297422 28.70974528 8.55277971 36.12667525 8 44 C7.95037109 44.69722168 7.90074219 45.39444336 7.84960938 46.11279297 C7.61328506 49.55446272 7.40468242 52.99688422 7.21484375 56.44140625 C7.00322669 59.9465542 6.67849684 63.41019256 6.25390625 66.89453125 C5.76818786 70.92225762 5.39615049 74.96263648 5 79 C5.58265625 78.59007812 6.1653125 78.18015625 6.765625 77.7578125 C13.37340815 73.41496131 19.1645198 71.78085542 27 71 C25.989375 70.505 24.97875 70.01 23.9375 69.5 C15.94958414 64.87541713 11.50816134 57.73430303 9 49 C8.084201 43.9122278 9.77162453 40.89070377 12.58203125 36.765625 C15.5546245 33.06421412 18.20721669 32.14296092 22.8125 31.3125 C24.3903125 31.1578125 24.3903125 31.1578125 26 31 C24.7934375 29.700625 24.7934375 29.700625 23.5625 28.375 C21.05088412 25.33235677 19.91174843 23.05957201 20 19 C21.625 16.5625 21.625 16.5625 24 15 C26.75 15.25 26.75 15.25 29 16 C28.34 16.99 27.68 17.98 27 19 C26.34 19 25.68 19 25 19 C24.56768505 23.98366261 24.56768505 23.98366261 26.625 28.375 C29.43845613 30.2999963 31.6333163 30.69393785 35 31 C34.67 31.66 34.34 32.32 34 33 C31.35139573 33.59355614 28.70802678 33.74209269 26 34 C26 34.66 26 35.32 26 36 C25.18595703 36.32871094 25.18595703 36.32871094 24.35546875 36.6640625 C20.38125532 38.42560575 18.38246245 39.37078758 16.0625 43.1875 C15.5365625 44.5796875 15.5365625 44.5796875 15 46 C14.67 46.33 14.34 46.66 14 47 C13.33386216 52.44012566 14.36256708 55.69374171 17.390625 60.07421875 C22.54620296 66.24339335 28.10632897 68.94020157 36 70 C33.44722581 72.79233071 31.77639718 73.48967606 28 74 C28.99 74.66 29.98 75.32 31 76 C30.27554688 76.17015625 29.55109375 76.3403125 28.8046875 76.515625 C21.40648224 78.37010845 15.72917041 80.12112276 11.3125 86.6875 C8.84998304 90.90555324 7.3332288 95.3174403 6 100 C5.67 99.34 5.34 98.68 5 98 C4.01 98.495 4.01 98.495 3 99 C2.33062989 107.73899867 3.8892421 115.20722427 9.25 122.3125 C15.49447696 128.41505703 21.55635827 131.36565599 30.30078125 131.2890625 C36.4536251 130.63014724 41.87401179 127.30708917 47 124 C47 124.66 47 125.32 47 126 C44.69921875 127.69140625 44.69921875 127.69140625 41.6875 129.5625 C40.70136719 130.18253906 39.71523438 130.80257812 38.69921875 131.44140625 C32.02018871 135.29803865 24.21136662 134.79103786 16.875 133 C11.2154504 131.12255326 6.9058457 127.44360707 3 123 C3 122.34 3 121.68 3 121 C2.34 121 1.68 121 1 121 C1.11470137 122.75070517 1.24219028 124.50057536 1.375 126.25 C1.44460938 127.22453125 1.51421875 128.1990625 1.5859375 129.203125 C1.98910348 131.92639708 2.52789508 133.69123113 4 136 C4.66 136.33 5.32 136.66 6 137 C6 137.66 6 138.32 6 139 C4.52093108 139.02689216 3.04172517 139.04634621 1.5625 139.0625 C0.73878906 139.07410156 -0.08492188 139.08570313 -0.93359375 139.09765625 C-3 139 -3 139 -4 138 C-4.10164892 135.37266323 -4.13964171 132.77233313 -4.1328125 130.14453125 C-4.13376923 129.33247726 -4.13472595 128.52042328 -4.13571167 127.6837616 C-4.1363951 125.94599328 -4.13452957 124.20822246 -4.13037109 122.47045898 C-4.12516925 119.89625725 -4.13023275 117.32224202 -4.13671875 114.74804688 C-4.14026775 106.07433911 -3.96974526 97.43586087 -3.5234375 88.7734375 C-3.05092976 79.52421617 -2.84366367 70.27898031 -2.71875 61.01953125 C-2.70919155 60.32148943 -2.6996331 59.62344761 -2.689785 58.90425301 C-2.61188523 53.1377378 -2.54200396 47.37113081 -2.47393799 41.60449219 C-2.42254481 37.26254712 -2.36769549 32.92067344 -2.30812073 28.57883263 C-2.28208264 26.58334266 -2.26101535 24.58778975 -2.2401123 22.59223938 C-1.95957164 1.95957164 -1.95957164 1.95957164 0 0 Z " fill="#122851" transform="translate(281,109)"/>
<path d="M0 0 C0.18699773 49.7295233 -0.35871437 99.33460286 -3 149 C-3.66 149.33 -4.32 149.66 -5 150 C-7.29332975 148.37730453 -9.58470136 146.75196361 -11.875 145.125 C-12.52597656 144.66480469 -13.17695313 144.20460937 -13.84765625 143.73046875 C-14.47285156 143.28574219 -15.09804688 142.84101563 -15.7421875 142.3828125 C-16.3182373 141.97434082 -16.89428711 141.56586914 -17.48779297 141.14501953 C-19 140 -19 140 -21 138 C-21.18318509 135.23359462 -21.23144949 132.57858806 -21.1875 129.8125 C-21.17674438 128.52702271 -21.17674438 128.52702271 -21.16577148 127.21557617 C-21.06640723 118.74606176 -20.81792977 110.27854851 -20.5625 101.8125 C-20.54303314 101.14473541 -20.52356628 100.47697083 -20.50350952 99.78897095 C-20.44537341 97.8448599 -20.38096045 95.90093977 -20.31640625 93.95703125 C-20.27974854 92.83272705 -20.24309082 91.70842285 -20.20532227 90.55004883 C-20.05319818 87.91980347 -19.81774358 85.37956229 -19.49609375 82.77075195 C-18.87424316 77.41990105 -18.81867924 72.09266825 -18.74609375 66.7109375 C-18.69677348 64.52989913 -18.64527141 62.34890922 -18.59179688 60.16796875 C-18.5094111 56.77817309 -18.43765456 53.39015587 -18.40307617 49.99951172 C-18.23916342 35.50116447 -17.85494221 21.85494221 -7 11 C-6.19567752 9.01656604 -5.54418535 7.0065095 -4.87890625 4.97265625 C-3.97979861 2.9546591 -2.51905562 0 0 0 Z " fill="#0E244F" transform="translate(277,104)"/>
<path d="M0 0 C3.06093258 2.95946168 5.04701512 5.57911586 6.98046875 9.38671875 C7.76647461 10.9171582 7.76647461 10.9171582 8.56835938 12.47851562 C9.10267578 13.53748047 9.63699219 14.59644531 10.1875 15.6875 C11.26285866 17.79632023 12.33960527 19.90443348 13.41796875 22.01171875 C13.89000732 22.94459717 14.3620459 23.87747559 14.84838867 24.83862305 C15.82221333 26.91939623 15.82221333 26.91939623 17 28 C17.14737096 29.71588182 17.22774106 31.43756824 17.28125 33.15893555 C17.31798828 34.26065598 17.35472656 35.3623764 17.39257812 36.4974823 C17.44575195 38.29890434 17.44575195 38.29890434 17.5 40.13671875 C17.54060547 41.36405228 17.58121094 42.5913858 17.62304688 43.85591125 C17.75325089 47.79963754 17.87730899 51.74353511 18 55.6875 C18.12302867 59.61360438 18.24750722 63.53963209 18.37695312 67.4655304 C18.45760581 69.91282539 18.53456212 72.36024563 18.60742188 74.80778503 C18.64416016 75.92526627 18.68089844 77.0427475 18.71875 78.1940918 C18.74904297 79.17258591 18.77933594 80.15108002 18.81054688 81.15922546 C19.01053161 84.15791734 19.50133003 87.03788418 20 90 C20.11594431 91.69258971 20.1961941 93.38800622 20.24047852 95.08398438 C20.26622452 96.04518188 20.29197052 97.00637939 20.3184967 97.9967041 C20.40341704 102.35035657 20.468385 106.70387231 20.51489258 111.05810547 C20.54663472 113.3529812 20.59449336 115.64769051 20.65844727 117.94189453 C20.74965545 121.26396812 20.78848298 124.58311408 20.81640625 127.90625 C20.85455948 128.92827515 20.89271271 129.95030029 20.93202209 131.0032959 C20.91300914 137.96940896 20.91300914 137.96940896 18.29977417 140.91918945 C16.26484701 142.4579531 14.21154741 143.73266779 12 145 C10.70004644 145.94706194 9.40780035 146.90483051 8.125 147.875 C5 150 5 150 3 150 C2.97494385 149.3387915 2.9498877 148.67758301 2.92407227 147.99633789 C2.80846898 145.01817695 2.68558246 142.0403608 2.5625 139.0625 C2.52318359 138.02158203 2.48386719 136.98066406 2.44335938 135.90820312 C2.40146484 134.91884766 2.35957031 133.92949219 2.31640625 132.91015625 C2.27974854 131.99371338 2.24309082 131.07727051 2.20532227 130.13305664 C2.22996136 128.0179272 2.22996136 128.0179272 1 127 C0.87673496 125.44812542 0.82209825 123.89074934 0.79467773 122.33422852 C0.77473755 121.32371429 0.75479736 120.31320007 0.73425293 119.27206421 C0.7175354 118.15232208 0.70081787 117.03257996 0.68359375 115.87890625 C0.66276733 114.7040567 0.64194092 113.52920715 0.6204834 112.3187561 C0.5651474 109.07772694 0.51483609 105.8366719 0.46757126 102.5955162 C0.43759484 100.56891152 0.4057185 98.54234491 0.37332153 96.51577759 C-0.13622428 64.34488667 -0.10333561 32.17393012 0 0 Z " fill="#0D234E" transform="translate(223,104)"/>
<path d="M0 0 C2.11328125 1.34375 2.11328125 1.34375 3.90234375 2.71484375 C5.59603524 4.11826519 5.59603524 4.11826519 8.48828125 4.90625 C12.98888025 13.57407029 12.70079529 24.58661939 9.98828125 33.71875 C9.50672698 35.12105388 9.01402693 36.51990871 8.48828125 37.90625 C7.16828125 37.90625 5.84828125 37.90625 4.48828125 37.90625 C4.15828125 38.89625 3.82828125 39.88625 3.48828125 40.90625 C0.5674832 42.98155387 -0.88718606 43.90625 -4.51171875 43.90625 C-4.51171875 43.24625 -4.51171875 42.58625 -4.51171875 41.90625 C-5.35734375 41.968125 -6.20296875 42.03 -7.07421875 42.09375 C-13.04998688 41.76779901 -16.86424509 39.94875753 -20.82421875 35.59375 C-25.69516826 29.35893462 -25.78360779 23.54935291 -25.51171875 15.90625 C-26.17171875 15.90625 -26.83171875 15.90625 -27.51171875 15.90625 C-26.72506655 9.61303243 -24.39986676 4.51318448 -19.57421875 0.40625 C-13.73062617 -2.40220074 -5.91500186 -2.57573953 0 0 Z " fill="#112751" transform="translate(318.51171875,189.09375)"/>
<path d="M0 0 C3.63 0 7.26 0 11 0 C11.66 3.96 12.32 7.92 13 12 C13.33 10.35 13.66 8.7 14 7 C16.64 7 19.28 7 22 7 C22.33 7.66 22.66 8.32 23 9 C23.66 6.03 24.32 3.06 25 0 C28.63 0 32.26 0 36 0 C35.52836539 7.24827926 34.90039077 14.47278497 34.0625 21.6875 C33.98789551 22.38230469 33.91329102 23.07710938 33.83642578 23.79296875 C33.23320081 28.76679919 33.23320081 28.76679919 31 31 C27.98173347 31.27240673 25.03629378 31.08675125 22 31 C20.68 28.03 19.36 25.06 18 22 C16.02 26.455 16.02 26.455 14 31 C11.03 31 8.06 31 5 31 C3.31986688 27.24851142 2.59055552 23.90376227 2.1484375 19.82421875 C2.01953125 18.66728516 1.890625 17.51035156 1.7578125 16.31835938 C1.63148437 15.12017578 1.50515625 13.92199219 1.375 12.6875 C1.2409375 11.46998047 1.106875 10.25246094 0.96875 8.99804688 C0.63947919 5.99933059 0.31679772 3.00005534 0 0 Z " fill="#050505" transform="translate(107,291)"/>
<path d="M0 0 C3.63 0 7.26 0 11 0 C11.22786458 2.05078125 11.45572917 4.1015625 11.68359375 6.15234375 C11.81886614 8.01140229 11.81886614 8.01140229 13 9 C13.33 8.34 13.66 7.68 14 7 C16.64 7 19.28 7 22 7 C22.33 8.32 22.66 9.64 23 11 C23.66 7.37 24.32 3.74 25 0 C28.63 0 32.26 0 36 0 C33.19402985 28.80597015 33.19402985 28.80597015 31 31 C27.99668982 31.14193337 25.00782866 31.04236378 22 31 C20.68 28.03 19.36 25.06 18 22 C16.35 24.97 14.7 27.94 13 31 C10.03 31 7.06 31 4 31 C3.32555232 26.959592 2.66182413 22.91749334 2 18.875 C1.80921875 17.73289062 1.6184375 16.59078125 1.421875 15.4140625 C1.15117187 13.75117188 1.15117187 13.75117188 0.875 12.0546875 C0.70742188 11.03874512 0.53984375 10.02280273 0.3671875 8.97607422 C-0.00586777 5.9524414 -0.0634842 3.04327403 0 0 Z " fill="#050505" transform="translate(357,291)"/>
<path d="M0 0 C3.63357651 1.74358433 5.34209204 2.77485681 7.6328125 6.2109375 C8.07966972 9.15418696 8.00308485 12.1122462 8.0078125 15.0859375 C8.03230469 15.88902344 8.05679687 16.69210937 8.08203125 17.51953125 C8.10170096 21.49936987 7.95188528 23.68102368 5.859375 27.15625 C0.83072826 31.7967205 -3.54311094 31.63261314 -10.22265625 31.53515625 C-14.50647685 31.0934704 -16.2675163 30.14305891 -19.3671875 27.2109375 C-23.15338885 21.53163548 -22.54149768 12.82067236 -21.3671875 6.2109375 C-19.5180263 3.14026773 -17.60683404 1.6695114 -14.3671875 0.2109375 C-10.07922163 -1.93304544 -4.4610612 -1.4870204 0 0 Z " fill="#030303" transform="translate(342.3671875,290.7890625)"/>
<path d="M0 0 C8.58 0 17.16 0 26 0 C26 2.64 26 5.28 26 8 C21.05 8 16.1 8 11 8 C11 8.99 11 9.98 11 11 C15.62 11 20.24 11 25 11 C25 13.64 25 16.28 25 19 C20.38 19 15.76 19 11 19 C11 19.99 11 20.98 11 22 C15.95 22 20.9 22 26 22 C26 24.97 26 27.94 26 31 C21.85418113 31.02886751 17.70838784 31.04675327 13.5625 31.0625 C11.78649414 31.07506836 11.78649414 31.07506836 9.97460938 31.08789062 C8.84990234 31.09111328 7.72519531 31.09433594 6.56640625 31.09765625 C5.00321655 31.10551147 5.00321655 31.10551147 3.40844727 31.11352539 C1 31 1 31 0 30 C-0.08783542 27.78144736 -0.10694609 25.56011504 -0.09765625 23.33984375 C-0.0962413 22.67537735 -0.09482635 22.01091095 -0.09336853 21.3263092 C-0.08775518 19.19666101 -0.07520054 17.06711661 -0.0625 14.9375 C-0.05748671 13.49674631 -0.05292351 12.05599097 -0.04882812 10.61523438 C-0.03863076 7.07675042 -0.0190583 3.53849187 0 0 Z " fill="#070707" transform="translate(223,291)"/>
<path d="M0 0 C4.62 0 9.24 0 14 0 C15.42859477 3.93118668 16.85421894 7.86319775 18.27246094 11.7980957 C18.75577135 13.13628168 19.24078598 14.47385343 19.72753906 15.81079102 C20.42702345 17.73294556 21.12034277 19.65722804 21.8125 21.58203125 C22.23144531 22.73936768 22.65039062 23.8967041 23.08203125 25.08911133 C24 28 24 28 24 31 C22.37581255 31.08090971 20.75048255 31.13914995 19.125 31.1875 C18.22007812 31.22230469 17.31515625 31.25710938 16.3828125 31.29296875 C15.20332031 31.14794922 15.20332031 31.14794922 14 31 C13.34 30.01 12.68 29.02 12 28 C9.57478506 27.41810734 9.57478506 27.41810734 6.875 27.3125 C5.96492187 27.24675781 5.05484375 27.18101562 4.1171875 27.11328125 C3.41851562 27.07589844 2.71984375 27.03851563 2 27 C1.67 28.32 1.34 29.64 1 31 C-2.63 31 -6.26 31 -10 31 C-9.20792137 27.03960687 -8.25753274 23.60956545 -6.93359375 19.82421875 C-6.53076172 18.66728516 -6.12792969 17.51035156 -5.71289062 16.31835938 C-5.29201172 15.12017578 -4.87113281 13.92199219 -4.4375 12.6875 C-4.01275391 11.46998047 -3.58800781 10.25246094 -3.15039062 8.99804688 C-2.10320034 5.99767021 -1.05198824 2.99869778 0 0 Z " fill="#060606" transform="translate(158,291)"/>
<path d="M0 0 C5.83591685 1.7302467 11.20749596 4.32743622 16.6875 6.9375 C17.63689453 7.38029297 18.58628906 7.82308594 19.56445312 8.27929688 C20.47517578 8.71177734 21.38589844 9.14425781 22.32421875 9.58984375 C23.15010498 9.98034912 23.97599121 10.37085449 24.8269043 10.77319336 C27.11551452 12.06521295 28.40288263 12.91327756 30 15 C30.49414062 17.96379089 30.49414062 17.96379089 30.65625 21.60229492 C30.70501282 22.59337265 30.70501282 22.59337265 30.75476074 23.60447216 C30.853673 25.7360019 30.92956611 27.86735103 31 30 C31.02481445 30.68637669 31.04962891 31.37275337 31.07519531 32.07992935 C31.22813946 36.40072089 31.34450124 40.72183223 31.44555664 45.0441227 C31.50151259 47.42771421 31.5617581 49.81116581 31.62304688 52.19462585 C31.79619617 58.9576524 31.96161444 65.72086213 32.125 72.48413086 C32.22595545 76.65120547 32.33145564 80.81814547 32.43969727 84.98503685 C32.47978122 86.56588458 32.51804079 88.14677966 32.55444336 89.72771645 C32.60497442 91.92187904 32.66121708 94.11582596 32.71875 96.30981445 C32.74904297 97.55696732 32.77933594 98.80412018 32.81054688 100.08906555 C32.80677662 102.93703664 32.80677662 102.93703664 34 105 C34.14879681 107.30921203 34.22134584 109.6236764 34.25 111.9375 C34.27578125 113.18402344 34.3015625 114.43054688 34.328125 115.71484375 C34 119 34 119 32.62109375 120.9609375 C31 122 31 122 28.8125 121.6875 C28.214375 121.460625 27.61625 121.23375 27 121 C27.66 120.01 28.32 119.02 29 118 C29.1959052 115.30057419 29.28007374 112.70695845 29.265625 110.0078125 C29.26753845 109.22485809 29.2694519 108.44190369 29.27142334 107.63522339 C29.27278378 105.97930581 29.26909719 104.32337753 29.26074219 102.66748047 C29.2500691 100.14135545 29.26062715 97.61594622 29.2734375 95.08984375 C29.27211532 93.4791651 29.26955171 91.8684869 29.265625 90.2578125 C29.26967346 89.50557404 29.27372192 88.75333557 29.27789307 87.978302 C29.24113295 83.83433303 28.71544847 80.75696373 27 77 C26.58568401 74.09115651 26.25590846 71.23496882 26 68.3125 C25.91806396 67.45615967 25.83612793 66.59981934 25.75170898 65.7175293 C25.27169152 60.55562235 24.88150417 55.39126941 24.53515625 50.21875 C24.45587891 49.07237061 24.37660156 47.92599121 24.29492188 46.74487305 C24.14324101 44.50487163 24.0021259 42.26412249 23.87304688 40.02270508 C23.48899261 34.32311073 22.75928836 29.30958701 20.72265625 23.95703125 C19.95826577 21.88697919 19.43631685 19.83594738 18.9375 17.6875 C17.6023311 12.01927681 17.6023311 12.01927681 13.35546875 8.3671875 C12.31003906 7.87476562 11.26460938 7.38234375 10.1875 6.875 C9.14980469 6.37742187 8.11210937 5.87984375 7.04296875 5.3671875 C4.3844766 4.17274302 1.71653549 3.05447773 -1 2 C-0.67 1.34 -0.34 0.68 0 0 Z " fill="#1A2F57" transform="translate(304,119)"/>
<path d="M0 0 C3.63 0 7.26 0 11 0 C13.23891142 5.45126259 14.47606294 10.13190493 15 16 C15.66 16 16.32 16 17 16 C17.12375 14.845 17.2475 13.69 17.375 12.5 C17.90278885 8.21649625 18.88398037 4.16647328 20 0 C23.63 0 27.26 0 31 0 C29.87881462 6.42133442 28.32760187 12.62485516 26.5 18.875 C26.17962769 19.98089478 26.17962769 19.98089478 25.8527832 21.10913086 C24.80735184 24.62624054 23.64876117 27.70247767 22 31 C17.71 31 13.42 31 9 31 C7.55709137 26.39333679 6.11725211 21.78573196 4.68017578 17.17724609 C4.04845674 15.15511027 3.41326525 13.13409847 2.77734375 11.11328125 C2.41769531 9.96214844 2.05804688 8.81101562 1.6875 7.625 C1.36136719 6.58601563 1.03523437 5.54703125 0.69921875 4.4765625 C0 2 0 2 0 0 Z " fill="#050505" transform="translate(186,291)"/>
<path d="M0 0 C2 1 2 1 3 3 C1.453125 3.2784375 1.453125 3.2784375 -0.125 3.5625 C-4.41719226 4.6413275 -8.34032314 6.39417163 -12.3125 8.3125 C-12.92303223 8.59617432 -13.53356445 8.87984863 -14.16259766 9.17211914 C-18.14030898 11.15436548 -20.15525567 12.95913147 -22 17 C-22.68764876 18.98897782 -22.68764876 18.98897782 -23.0625 20.9375 C-23.57441683 23.311819 -24.17426233 25.48916947 -24.9921875 27.78515625 C-28.38449324 38.60634861 -28.27873281 50.89918943 -28.57055664 62.16015625 C-28.80021131 69.25785964 -29.56982902 76.13863815 -32.04956055 82.83374023 C-33.70758814 88.35723364 -33.33292991 94.07357292 -33.31567383 99.79492188 C-33.31250865 101.99399163 -33.33602795 104.1917206 -33.36132812 106.390625 C-33.36360111 107.80208165 -33.36430462 109.21354189 -33.36328125 110.625 C-33.36626221 111.89601563 -33.36924316 113.16703125 -33.37231445 114.4765625 C-32.97120967 118.27246031 -31.90695741 120.72246619 -30 124 C-32.9375 123.625 -32.9375 123.625 -36 123 C-37.37252731 120.25494537 -37.13229255 117.99672588 -37.125 114.9375 C-37.12757813 113.85339844 -37.13015625 112.76929688 -37.1328125 111.65234375 C-37 109 -37 109 -36 108 C-35.88221489 106.41571438 -35.83268085 104.82629677 -35.81054688 103.23779297 C-35.79378403 102.21577286 -35.77702118 101.19375275 -35.75975037 100.14076233 C-35.73945518 98.45846779 -35.73945518 98.45846779 -35.71875 96.7421875 C-35.70074844 95.58307358 -35.68274689 94.42395966 -35.66419983 93.22972107 C-35.62574041 90.73843289 -35.58932363 88.24711252 -35.55471802 85.75576782 C-35.4640859 79.3278634 -35.35416531 72.90028709 -35.24609375 66.47265625 C-35.22522202 65.21202866 -35.20435028 63.95140106 -35.18284607 62.65257263 C-35.01946694 52.87117344 -34.83613992 43.09146248 -34.5625 33.3125 C-34.53542969 32.09481934 -34.50835937 30.87713867 -34.48046875 29.62255859 C-34.43019531 27.97827881 -34.43019531 27.97827881 -34.37890625 26.30078125 C-34.3538501 25.38466064 -34.32879395 24.46854004 -34.30297852 23.5246582 C-33.87807734 19.98404331 -33.18668181 17.08078973 -30.48974609 14.62451172 C-24.3779806 11.07349655 -18.05433707 8.05659157 -11.625 5.125 C-10.53316406 4.61453125 -9.44132812 4.1040625 -8.31640625 3.578125 C-7.27613281 3.10117188 -6.23585937 2.62421875 -5.1640625 2.1328125 C-3.74794678 1.48143311 -3.74794678 1.48143311 -2.30322266 0.81689453 C-1.54315918 0.54731934 -0.7830957 0.27774414 0 0 Z " fill="#182E56" transform="translate(199,117)"/>
<path d="M0 0 C8.25 0 16.5 0 25 0 C25 2.97 25 5.94 25 9 C20.38 9 15.76 9 11 9 C11 9.99 11 10.98 11 12 C15.29 12 19.58 12 24 12 C24 14.97 24 17.94 24 21 C19.71 21 15.42 21 11 21 C11 24.3 11 27.6 11 31 C7.37 31 3.74 31 0 31 C0 20.77 0 10.54 0 0 Z " fill="#050505" transform="translate(257,291)"/>
<path d="M0 0 C4.37081182 0.51421316 8.02704918 2.20827708 12 4 C11.67 4.66 11.34 5.32 11 6 C9.33499557 6.34153937 7.66821323 6.67449498 6 7 C5.34 7.66 4.68 8.32 4 9 C4.26410076 14.9422672 6.94187233 17.94187233 11 22 C10.41992188 22.02578125 9.83984375 22.0515625 9.2421875 22.078125 C3.79898075 22.47334133 0.23075592 23.2729055 -4 27 C-7.05536277 31.23808384 -7.42941691 34.56501424 -6.62890625 39.5703125 C-4.44157116 48.02076236 -0.12580675 54.01335194 7 59 C8.31786328 59.69674859 9.64737713 60.37339519 11 61 C9.28022517 62.71977483 6.78501257 62.45619367 4.4375 62.75 C-0.742928 63.55268849 -4.26107455 64.89943417 -8.4765625 67.9765625 C-10 69 -10 69 -12 69 C-12.02714735 66.77090129 -12.04646254 64.54170633 -12.0625 62.3125 C-12.07990234 60.45044922 -12.07990234 60.45044922 -12.09765625 58.55078125 C-12 55 -12 55 -11.51855469 52.64916992 C-10.95419115 49.7659737 -10.75783274 46.99602703 -10.60546875 44.0625 C-9.19404349 19.84161829 -9.19404349 19.84161829 -5 10 C-4.63261719 9.10023438 -4.26523437 8.20046875 -3.88671875 7.2734375 C-1.37634771 1.37634771 -1.37634771 1.37634771 0 0 Z " fill="#F5F6F7" transform="translate(298,119)"/>
<path d="M0 0 C4.04082113 3.16238175 6.57929365 5.46964384 7.44140625 10.66015625 C7.44011719 11.86542969 7.43882812 13.07070312 7.4375 14.3125 C7.45941406 15.52035156 7.48132813 16.72820312 7.50390625 17.97265625 C6.875 21.25 6.875 21.25 4.4921875 23.65234375 C1.48755648 25.48651403 0.31747171 25.9217018 -3.125 25.25 C-8.43366084 22.48026391 -13.05640146 18.43212895 -16.125 13.25 C-17.11766447 8.20332416 -16.86809329 3.67965948 -14.125 -0.75 C-9.00306572 -3.737795 -5.00691976 -2.80387507 0 0 Z " fill="#142A53" transform="translate(315.125,148.75)"/>
<path d="M0 0 C2.98163504 2.80624475 2.98032066 4.82569729 3.4375 8.875 C3.21281356 14.06232612 1.14350976 17.78014606 -2.42578125 21.4765625 C-6.13696941 24.75621715 -9.5207924 27.12093696 -14.5625 26.875 C-17.81868556 25.70611288 -19.07368842 24.92513981 -21 22 C-21.96550303 16.40203293 -21.54929034 11.29264119 -18.31640625 6.5390625 C-13.26240487 0.63023003 -7.8218912 -1.71016259 0 0 Z " fill="#162C55" transform="translate(198,147)"/>
<path d="M0 0 C3.63 0 7.26 0 11 0 C11 7.26 11 14.52 11 22 C15.62 22 20.24 22 25 22 C25 24.97 25 27.94 25 31 C16.75 31 8.5 31 0 31 C0 20.77 0 10.54 0 0 Z " fill="#010101" transform="translate(290,291)"/>
<path d="M0 0 C3 1 3 1 4.75 3.0625 C7.84152078 5.72464289 10.0334437 5.14690949 14 5 C16.20291604 7.20291604 16.36100608 7.98914538 16.9375 10.9375 C17.68318417 14.27503802 18.51959696 15.63771139 21 18 C20.90664164 20.89410902 19.98479822 22.01824214 18.125 24.25 C16 26 16 26 13 26 C13 26.66 13 27.32 13 28 C8.05394066 27.51745762 3.82949319 26.22532558 0 23 C-3.58056047 18.13604587 -4.79808767 12.95641387 -5 7 C-4.34 6.01 -3.68 5.02 -3 4 C-2.34 4 -1.68 4 -1 4 C-0.67 2.68 -0.34 1.36 0 0 Z " fill="#F7F8F9" transform="translate(301,200)"/>
<path d="M0 0 C2.89272806 1.29674016 4.9958929 2.52301369 7 5 C8.10125779 10.58565887 7.3391872 16.27875862 4.5390625 21.234375 C1.51199629 24.70704994 -2.62185321 26.71602426 -7 28 C-10.33076288 27.68069754 -12.24700162 26.27501143 -14.75 24.125 C-15.36359375 23.61195313 -15.9771875 23.09890625 -16.609375 22.5703125 C-18 21 -18 21 -18 18 C-17.38125 17.46375 -16.7625 16.9275 -16.125 16.375 C-13.09306111 12.98636241 -12.71447818 9.39968142 -12 5 C-11.07767578 4.90912109 -11.07767578 4.90912109 -10.13671875 4.81640625 C-9.32847656 4.73261719 -8.52023438 4.64882812 -7.6875 4.5625 C-6.88699219 4.48128906 -6.08648437 4.40007812 -5.26171875 4.31640625 C-2.83912821 4.04734307 -2.83912821 4.04734307 0 3 C0 2.01 0 1.02 0 0 Z " fill="#F9F9FA" transform="translate(196,200)"/>
<path d="M0 0 C3.25696479 0.41755959 4.63443291 0.63443291 7 3 C7.44949688 6.33911969 7.71658313 8.85396635 5.87890625 11.79296875 C4.65335768 13.25460033 3.33201246 14.63468722 2 16 C2.56847656 16.0515625 3.13695312 16.103125 3.72265625 16.15625 C9.57699461 17.01631974 13.07575352 18.82325802 16.73828125 23.52734375 C19.16534836 28.28379415 18.96481212 32.8430113 18 38 C15.33609413 45.33133757 10.46097982 51.00328087 3.75 54.875 C1 56 1 56 -1 56 C-1 56.66 -1 57.32 -1 58 C-3.96175123 57.38722388 -5.38058783 56.74627478 -8 55 C-6.41412493 53.41412493 -4.49433217 53.53646269 -2.3125 53.1875 C3.89279201 51.96591612 7.53121415 50.08077996 11.25 44.8125 C13.36450968 40.75968978 14.22858463 36.47623916 15 32 C14.01 31.67 13.02 31.34 12 31 C10.8125 27.9375 10.8125 27.9375 10 25 C9.01 25 8.02 25 7 25 C6.34 24.01 5.68 23.02 5 22 C2.94074861 21.27617533 2.94074861 21.27617533 1 21 C1 20.34 1 19.68 1 19 C-0.134375 18.87625 -1.26875 18.7525 -2.4375 18.625 C-3.613125 18.41875 -4.78875 18.2125 -6 18 C-6.33 17.34 -6.66 16.68 -7 16 C-4.03 15.34 -1.06 14.68 2 14 C3.36700394 8.20048909 3.36700394 8.20048909 1.0625 3 C0.381875 2.34 -0.29875 1.68 -1 1 C-0.67 0.67 -0.34 0.34 0 0 Z " fill="#152B54" transform="translate(191,124)"/>
<path d="M0 0 C0.7425 0.2475 1.485 0.495 2.25 0.75 C1.26 2.235 1.26 2.235 0.25 3.75 C-0.41 3.75 -1.07 3.75 -1.75 3.75 C-2.18231495 8.73366261 -2.18231495 8.73366261 -0.125 13.125 C2.68845613 15.0499963 4.8833163 15.44393785 8.25 15.75 C7.92 16.41 7.59 17.07 7.25 17.75 C4.60139573 18.34355614 1.95802678 18.49209269 -0.75 18.75 C-0.75 19.41 -0.75 20.07 -0.75 20.75 C-1.29269531 20.96914062 -1.83539063 21.18828125 -2.39453125 21.4140625 C-6.36874468 23.17560575 -8.36753755 24.12078758 -10.6875 27.9375 C-11.038125 28.865625 -11.38875 29.79375 -11.75 30.75 C-12.08 31.08 -12.41 31.41 -12.75 31.75 C-13.4158805 37.18802406 -12.37312127 40.42200048 -9.38671875 44.8203125 C-6.18469278 48.59549348 -2.17096024 51.53951988 2.25 53.75 C2.25 54.74 2.25 55.73 2.25 56.75 C-4.94196842 54.25849666 -10.71000018 49.29053302 -14.5078125 42.69921875 C-16.73593116 37.58727794 -18.2439128 33.38820453 -17.75 27.75 C-16.10195461 23.74560035 -13.72193222 20.54289207 -10.375 17.8125 C-7.18092475 16.51966002 -4.16889595 16.08518588 -0.75 15.75 C-1.554375 14.88375 -2.35875 14.0175 -3.1875 13.125 C-5.69911588 10.08235677 -6.83825157 7.80957201 -6.75 3.75 C-4.66788764 0.62683146 -3.81124618 -0.34647693 0 0 Z " fill="#152B54" transform="translate(307.75,124.25)"/>
<path d="M0 0 C0.33 0 0.66 0 1 0 C2.75836338 101.71510201 2.75836338 101.71510201 1 144 C0.67 144 0.34 144 0 144 C-0.01030746 143.23025345 -0.02061493 142.4605069 -0.03123474 141.66743469 C-0.16286066 131.88240235 -0.29867995 122.09743279 -0.4375 112.3125 C-0.44852123 111.53416306 -0.45954247 110.75582611 -0.47089767 109.9539032 C-0.75432632 90.00386059 -1.05073894 70.05687283 -1.69506836 50.11450195 C-1.98014157 41.07188804 -2.04694288 32.04581931 -2 23 C-1.67 23 -1.34 23 -1 23 C-0.67 15.41 -0.34 7.82 0 0 Z " fill="#CED3DB" transform="translate(222,104)"/>
<path d="M0 0 C0.33 0 0.66 0 1 0 C1.06121148 10.77079133 1.10195658 21.54156272 1.125 32.3125 C1.12671204 33.10709877 1.12842407 33.90169754 1.13018799 34.72037506 C1.17995937 60.86320649 0.68914487 86.90361024 -1 113 C-1.99 113.495 -1.99 113.495 -3 114 C-3.05549149 99.90689632 -2.89579971 85.8280679 -2.59765625 71.73828125 C-2.55516963 69.68417953 -2.5127256 67.63007694 -2.47032166 65.57597351 C-2.38189931 61.32136701 -2.29170498 57.06680226 -2.20043945 52.81225586 C-2.08358103 47.34925326 -1.97327045 41.88613828 -1.86443424 36.42297077 C-1.77936635 32.20491882 -1.68993319 27.98696787 -1.59924126 23.76903343 C-1.55658993 21.7519376 -1.51554467 19.73480716 -1.4761219 17.71764565 C-1.42104812 14.92272692 -1.35988414 12.12800701 -1.29711914 9.33325195 C-1.28201294 8.49864944 -1.26690674 7.66404694 -1.25134277 6.80415344 C-1.11415528 1.11415528 -1.11415528 1.11415528 0 0 Z " fill="#DCDFE5" transform="translate(278,116)"/>
<path d="M0 0 C0.99 0.33 1.98 0.66 3 1 C3.85040228 4.20536243 4.44039905 6.80126676 3.26953125 9.98828125 C1.47718759 12.94289554 0.07890868 14.65274368 -3.26953125 15.73046875 C-5.60622111 16.05133892 -7.6545803 16.26265014 -10 16 C-10.66 15.34 -11.32 14.68 -12 14 C-11.45782015 9.60834324 -8.91562678 6.20718946 -6 3 C-3.25 1.625 -3.25 1.625 -1 1 C-0.67 0.67 -0.34 0.34 0 0 Z " fill="#F7F7F9" transform="translate(194,154)"/>
<path d="M0 0 C5.05639066 0.56182118 8.89733862 3.89733862 12.375 7.375 C14.30857109 10.49846099 14.33573433 12.39085598 14 16 C9.51876853 16.44812315 7.50505991 16.33353013 3.6875 13.8125 C0.3494841 10.31922755 -0.86100814 8.03854735 -1.1875 3.25 C-1 1 -1 1 0 0 Z " fill="#F7F8F9" transform="translate(303,154)"/>
<path d="M0 0 C0.66 0 1.32 0 2 0 C3.27400375 1.47000433 4.5435008 2.94515781 5.7578125 4.46484375 C7.07336124 6.09066342 8.48213245 7.56202021 10 9 C8.00045254 9.04254356 5.99958364 9.04080783 4 9 C3.67 8.67 3.34 8.34 3 8 C2.90203125 8.68707031 2.8040625 9.37414062 2.703125 10.08203125 C2.55359375 10.98308594 2.4040625 11.88414063 2.25 12.8125 C2.11078125 13.70582031 1.9715625 14.59914063 1.828125 15.51953125 C0.81289419 18.56043486 -0.22942818 19.45173928 -3 21 C-6.25 21.1875 -6.25 21.1875 -9 21 C-9.66 19.68 -10.32 18.36 -11 17 C-8.93243723 14.2027092 -7.85559629 13.97307727 -4.3125 13.3125 C-3.219375 13.209375 -2.12625 13.10625 -1 13 C-1.01160156 12.39671875 -1.02320313 11.7934375 -1.03515625 11.171875 C-1.04417969 10.37265625 -1.05320313 9.5734375 -1.0625 8.75 C-1.07410156 7.96109375 -1.08570313 7.1721875 -1.09765625 6.359375 C-1.00385306 4.09308998 -0.63241063 2.1711105 0 0 Z " fill="#252525" transform="translate(240,81)"/>
<path d="M0 0 C5.80054339 1.52450179 9.67635324 2.65326391 13 8 C11.5410574 7.52269162 10.08286504 7.04308958 8.625 6.5625 C7.81289062 6.29566406 7.00078125 6.02882813 6.1640625 5.75390625 C4 5 4 5 2 4 C2.28875 4.49628906 2.5775 4.99257813 2.875 5.50390625 C5.41182425 10.14594229 6.74412389 13.57852594 6 19 C4.8125 20.9375 4.8125 20.9375 3 22 C0.4375 22.3125 0.4375 22.3125 -2 22 C-2.66 21.34 -3.32 20.68 -4 20 C-3.67028521 16.70285207 -3.3773161 15.3773161 -1 13 C-0.01 13 0.98 13 2 13 C1.67 11.96875 1.34 10.9375 1 9.875 C0.0284808 6.51573291 -0.17116771 3.50893798 0 0 Z " fill="#1B1B1B" transform="translate(231,38)"/>
<path d="M0 0 C4.29 0.66 8.58 1.32 13 2 C13.30813636 9.29256043 13.39155894 16.81584848 8.5625 22.7734375 C7 24 7 24 4.3125 23.6875 C3.549375 23.460625 2.78625 23.23375 2 23 C1.375 21.125 1.375 21.125 1 19 C1.66 18.34 2.32 17.68 3 17 C5.625 17.375 5.625 17.375 8 18 C8.20496094 17.24074219 8.40992188 16.48148438 8.62109375 15.69921875 C8.89050781 14.70535156 9.15992188 13.71148437 9.4375 12.6875 C9.70433594 11.70136719 9.97117187 10.71523437 10.24609375 9.69921875 C10.78079425 7.78482474 11.37144538 5.88566385 12 4 C10.7625 4.0825 9.525 4.165 8.25 4.25 C6.140625 4.390625 6.140625 4.390625 4 4 C2.68 2.68 1.36 1.36 0 0 Z " fill="#373737" transform="translate(260,56)"/>
<path d="M0 0 C2.5 0.125 2.5 0.125 3.5 1.125 C3.62514928 3.10119447 3.6757276 5.08238173 3.6875 7.0625 C3.70167969 8.14402344 3.71585937 9.22554688 3.73046875 10.33984375 C3.5 13.125 3.5 13.125 1.5 15.125 C-2.03571429 14.58928571 -2.03571429 14.58928571 -3.5 13.125 C-3.59873816 11.12700428 -3.62971799 9.12542842 -3.625 7.125 C-3.62757813 6.031875 -3.63015625 4.93875 -3.6328125 3.8125 C-3.45293603 0.1726468 -3.45293603 0.1726468 0 0 Z " fill="#E8E8E8" transform="translate(335.5,298.875)"/>
<path d="M0 0 C0.33 0 0.66 0 1 0 C1 5.94 1 11.88 1 18 C1.99 18.33 2.98 18.66 4 19 C4.08097324 21.27024968 4.13917704 23.54132075 4.1875 25.8125 C4.22230469 27.07707031 4.25710938 28.34164062 4.29296875 29.64453125 C4 33 4 33 2.625 34.96875 C1 36 1 36 -1.1875 35.6875 C-1.785625 35.460625 -2.38375 35.23375 -3 35 C-2.34 34.01 -1.68 33.02 -1 32 C-0.76034953 29.53615097 -0.62758 27.17459424 -0.5859375 24.70703125 C-0.56657135 24.00100266 -0.5472052 23.29497406 -0.5272522 22.56755066 C-0.46754776 20.31598939 -0.4211086 18.06437672 -0.375 15.8125 C-0.33681171 14.28448311 -0.29775948 12.75648755 -0.2578125 11.22851562 C-0.16185404 7.48585065 -0.07778989 3.7430849 0 0 Z " fill="#3A4C6F" transform="translate(334,205)"/>
<path d="M0 0 C0.33 0 0.66 0 1 0 C1.23682509 5.80221465 1.24316757 11.43637992 -2.75 16 C-5.80378969 17.35723986 -7.81814995 16.79546251 -11 16 C-11.625 14.125 -11.625 14.125 -12 12 C-11.34 11.34 -10.68 10.68 -10 10 C-6.375 10.375 -6.375 10.375 -3 11 C-2.87625 10.29875 -2.7525 9.5975 -2.625 8.875 C-1.96161655 5.82343613 -1.02788045 2.94659062 0 0 Z " fill="#252525" transform="translate(258,57)"/>
<path d="M0 0 C0.7425 0.2475 1.485 0.495 2.25 0.75 C1.26 2.235 1.26 2.235 0.25 3.75 C-0.41 3.75 -1.07 3.75 -1.75 3.75 C-2.18231495 8.73366261 -2.18231495 8.73366261 -0.125 13.125 C2.68845613 15.0499963 4.8833163 15.44393785 8.25 15.75 C7.92 16.41 7.59 17.07 7.25 17.75 C4.125 18.25 4.125 18.25 0.25 17.75 C-3.29551036 14.59669211 -5.33568437 10.94691181 -6.875 6.5 C-6.75 3.75 -6.75 3.75 -5.125 1.3125 C-2.75 -0.25 -2.75 -0.25 0 0 Z " fill="#283C62" transform="translate(307.75,124.25)"/>
<path d="M0 0 C0.33 0 0.66 0 1 0 C1.14695312 0.56847656 1.29390625 1.13695312 1.4453125 1.72265625 C3.636258 9.26504909 6.99530717 14.45451994 13.875 18.4375 C14.90625 18.953125 15.9375 19.46875 17 20 C17 20.99 17 21.98 17 23 C12.85497089 21.6034669 10.11852826 19.66619972 6.875 16.75 C6.02679688 16.00234375 5.17859375 15.2546875 4.3046875 14.484375 C1.80656327 11.79148176 0.3717641 9.39978743 -1 6 C-0.6875 2.625 -0.6875 2.625 0 0 Z " fill="#2A3E63" transform="translate(293,158)"/>
<path d="M0 0 C0.68707031 0.42152344 1.37414062 0.84304687 2.08203125 1.27734375 C2.98308594 1.82519531 3.88414062 2.37304688 4.8125 2.9375 C5.70582031 3.48277344 6.59914062 4.02804688 7.51953125 4.58984375 C11.73039395 6.98373577 14.91266734 7.10977557 19.6875 7.0625 C20.86699219 7.05347656 22.04648438 7.04445312 23.26171875 7.03515625 C24.16535156 7.02355469 25.06898438 7.01195312 26 7 C26 7.99 26 8.98 26 10 C15.24962464 10.47661763 8.46009267 8.73354315 0 2 C0 1.34 0 0.68 0 0 Z " fill="#263B61" transform="translate(172,233)"/>
<path d="M0 0 C1.670625 0.061875 1.670625 0.061875 3.375 0.125 C2.625 4.875 2.625 4.875 0.375 7.125 C-2.25 6.75 -2.25 6.75 -4.625 6.125 C-5.25 4.25 -5.25 4.25 -5.625 2.125 C-3.625 0.125 -3.625 0.125 0 0 Z " fill="#191919" transform="translate(266.625,72.875)"/>
<path d="M0 0 C3.25696479 0.41755959 4.63443291 0.63443291 7 3 C7.125 6.625 7.125 6.625 7 10 C6.01 10.33 5.02 10.66 4 11 C3.731875 10.0925 3.46375 9.185 3.1875 8.25 C2.10423706 5.28528037 1.01640543 3.3830246 -1 1 C-0.67 0.67 -0.34 0.34 0 0 Z " fill="#152B54" transform="translate(191,124)"/>
<path d="M0 0 C0.99 0.66 1.98 1.32 3 2 C2.33613281 2.03738281 1.67226563 2.07476562 0.98828125 2.11328125 C-4.14223169 2.49526105 -7.71724589 2.92177048 -12 6 C-12.66 6 -13.32 6 -14 6 C-14 6.66 -14 7.32 -14 8 C-14.99 7.67 -15.98 7.34 -17 7 C-11.21829589 2.00671009 -8.00529315 -0.58220314 0 0 Z " fill="#D7DAE1" transform="translate(310,186)"/>
<path d="M0 0 C2.125 0.375 2.125 0.375 4 1 C3.38722388 3.96175123 2.74627478 5.38058783 1 8 C-0.32 7.67 -1.64 7.34 -3 7 C-2.25 2.25 -2.25 2.25 0 0 Z " fill="#0E0E0E" transform="translate(230,51)"/>
<path d="M0 0 C5.80054339 1.52450179 9.67635324 2.65326391 13 8 C9 6.66666667 5 5.33333333 1 4 C0.67 4.66 0.34 5.32 0 6 C0 4.02 0 2.04 0 0 Z " fill="#272727" transform="translate(231,38)"/>
<path d="M0 0 C0 0.66 0 1.32 0 2 C-1.65 2.33 -3.3 2.66 -5 3 C-5.66 5.97 -6.32 8.94 -7 12 C-7.99 12 -8.98 12 -10 12 C-10.99 12.495 -10.99 12.495 -12 13 C-11.33333333 11.66666667 -10.66666667 10.33333333 -10 9 C-9.566875 7.989375 -9.13375 6.97875 -8.6875 5.9375 C-6.64971101 2.39023768 -4.28517745 0 0 0 Z " fill="#CBD0D9" transform="translate(306,145)"/>
<path d="M0 0 C0.66 0.66 1.32 1.32 2 2 C-3.75 5 -3.75 5 -6 5 C-6 5.66 -6 6.32 -6 7 C-8.96175123 6.38722388 -10.38058783 5.74627478 -13 4 C-11.36864049 2.36864049 -9.2909006 2.40923282 -7.0625 2 C-3.41467401 1.3496481 -3.41467401 1.3496481 0 0 Z " fill="#36496C" transform="translate(196,175)"/>
<path d="M0 0 C0.99 0.33 1.98 0.66 3 1 C0.09326425 5.22797927 0.09326425 5.22797927 -2 7 C-5.8125 7.375 -5.8125 7.375 -9 7 C-9.33 6.34 -9.66 5.68 -10 5 C-9.36191406 4.89042969 -8.72382813 4.78085938 -8.06640625 4.66796875 C-7.24011719 4.50941406 -6.41382813 4.35085937 -5.5625 4.1875 C-4.32693359 3.96126953 -4.32693359 3.96126953 -3.06640625 3.73046875 C-2.38449219 3.48941406 -1.70257813 3.24835938 -1 3 C-0.67 2.01 -0.34 1.02 0 0 Z " fill="#314468" transform="translate(194,135)"/>
<path d="M0 0 C4.42679007 1.47559669 4.91432696 3.90057368 7 8 C7 8.66 7 9.32 7 10 C6.01 10 5.02 10 4 10 C3.32845067 8.71086513 2.66291141 7.41859796 2 6.125 C1.62875 5.40570313 1.2575 4.68640625 0.875 3.9453125 C0 2 0 2 0 0 Z " fill="#DEE1E7" transform="translate(204,192)"/>
<path d="M0 0 C4.24822374 0.47202486 6.19989709 2.96655518 9 6 C6.1875 6.25 6.1875 6.25 3 6 C1.125 4.125 1.125 4.125 0 2 C0 1.34 0 0.68 0 0 Z " fill="#141414" transform="translate(241,84)"/>
<path d="M0 0 C2.375 2.0625 2.375 2.0625 4 4 C-1 3 -6 2 -11 1 C-11 0.67 -11 0.34 -11 0 C-7.01235853 -1.05555215 -3.99066575 -1.10380117 0 0 Z " fill="#E3E5EA" transform="translate(199,187)"/>
<path d="M0 0 C3.63 0.66 7.26 1.32 11 2 C11 2.66 11 3.32 11 4 C4.6 4.49230769 4.6 4.49230769 1.5625 2 C1.046875 1.34 0.53125 0.68 0 0 Z " fill="#131313" transform="translate(260,56)"/>
<path d="M0 0 C0.66 0 1.32 0 2 0 C1.68232368 5.40049736 -1.19996327 7.52337065 -5 11 C-5.66 10.67 -6.32 10.34 -7 10 C-6.57847656 9.52949219 -6.15695313 9.05898437 -5.72265625 8.57421875 C-5.17480469 7.95160156 -4.62695312 7.32898438 -4.0625 6.6875 C-3.51722656 6.07261719 -2.97195312 5.45773438 -2.41015625 4.82421875 C-0.79918441 2.94758042 -0.79918441 2.94758042 0 0 Z " fill="#21365D" transform="translate(204,165)"/>
<path d="M0 0 C0.66 0.66 1.32 1.32 2 2 C-0.31 4.64 -2.62 7.28 -5 10 C-5.99 9.34 -6.98 8.68 -8 8 C-7.401875 7.773125 -6.80375 7.54625 -6.1875 7.3125 C-3.42886244 5.65731747 -2.50669981 3.79815679 -1 1 C-0.67 0.67 -0.34 0.34 0 0 Z " fill="#35486B" transform="translate(198,161)"/>
<path d="M0 0 C-0.33 0.99 -0.66 1.98 -1 3 C-1.99 3 -2.98 3 -4 3 C-3.67 3.66 -3.34 4.32 -3 5 C-5.97 4.505 -5.97 4.505 -9 4 C-9 3.34 -9 2.68 -9 2 C-5.86501708 0.14223235 -3.62528568 -0.20140476 0 0 Z " fill="#2F2F2F" transform="translate(239,94)"/>
<path d="M0 0 C1.76462683 3.08809695 2 4.23312136 2 8 C0.68 8 -0.64 8 -2 8 C-1.125 1.125 -1.125 1.125 0 0 Z " fill="#D5D5D5" transform="translate(165,301)"/>
<path d="M0 0 C-0.33 0.99 -0.66 1.98 -1 3 C-2.65 3.33 -4.3 3.66 -6 4 C-6 3.34 -6 2.68 -6 2 C-7.98 2 -9.96 2 -12 2 C-12 1.67 -12 1.34 -12 1 C-10.37512529 0.83211627 -8.75009558 0.66573213 -7.125 0.5 C-6.22007812 0.4071875 -5.31515625 0.314375 -4.3828125 0.21875 C-2 0 -2 0 0 0 Z " fill="#6F7C96" transform="translate(320,229)"/>
<path d="M0 0 C3.91211733 1.15585285 6.8745041 2.35534962 10 5 C9.01 5.495 9.01 5.495 8 6 C5.8359375 5.22265625 5.8359375 5.22265625 3.375 4.0625 C2.55773437 3.68222656 1.74046875 3.30195312 0.8984375 2.91015625 C0.27195312 2.60980469 -0.35453125 2.30945313 -1 2 C-0.67 1.34 -0.34 0.68 0 0 Z " fill="#3C4E70" transform="translate(304,119)"/>
<path d="M0 0 C0.33 0 0.66 0 1 0 C1.08159574 4.16138263 0.98248524 7.9472484 0 12 C-0.99 11.34 -1.98 10.68 -3 10 C-2.01 6.7 -1.02 3.4 0 0 Z " fill="#363636" transform="translate(258,57)"/>
<path d="M0 0 C0.66 0.33 1.32 0.66 2 1 C1.01 3.31 0.02 5.62 -1 8 C-1.99 8 -2.98 8 -4 8 C-2.25 2.25 -2.25 2.25 0 0 Z " fill="#ECEEF1" transform="translate(293,194)"/>
</svg>
